<svg width="660" height="536" viewBox="0 0 660 536" fill="none" xmlns="http://www.w3.org/2000/svg">
<g clip-path="url(#clip0)">
<path d="M488.669 271.521C549.449 271.521 598.721 222.195 598.721 161.348C598.721 100.501 549.449 51.1743 488.669 51.1743C427.889 51.1743 378.617 100.501 378.617 161.348C378.617 222.195 427.889 271.521 488.669 271.521Z" fill="white"/>
<path d="M497.579 268.861C558.359 268.861 607.631 219.534 607.631 158.687C607.631 97.8402 558.359 48.5139 497.579 48.5139C436.799 48.5139 387.527 97.8402 387.527 158.687C387.527 219.534 436.799 268.861 497.579 268.861Z" fill="#F3F5F4"/>
<path d="M488.669 271.521C549.449 271.521 598.721 222.195 598.721 161.348C598.721 100.501 549.449 51.1743 488.669 51.1743C427.889 51.1743 378.617 100.501 378.617 161.348C378.617 222.195 427.889 271.521 488.669 271.521Z" stroke="#225639" stroke-width="0.25" stroke-miterlimit="10"/>
<path d="M469.285 271.521H451.151L452.558 231.615H468.347L469.285 271.521Z" fill="#B14330"/>
<path d="M458.811 163.852L439.896 229.424L446.305 235.84L439.896 243.665L474.443 247.577L458.811 163.852Z" fill="#FFB84F"/>
<path d="M469.285 272.93H523.06L541.506 155.87L511.649 153.992L478.195 155.87L458.811 163.852L469.285 272.93Z" fill="#FFB84F"/>
<path d="M487.262 173.398L511.648 153.992L502.738 124.415L476.945 127.858L487.262 173.398Z" fill="#B14330"/>
<path d="M482.26 151.019L494.14 136.152L476.945 127.858L482.26 151.019Z" fill="#5F281C"/>
<path d="M459.28 112.051C458.029 125.667 462.563 142.412 476.163 143.507C489.763 144.759 506.177 128.484 507.428 114.868C508.678 101.253 513.681 78.5612 495.234 76.9962C468.503 74.8053 460.53 98.4362 459.28 112.051Z" fill="#B14330"/>
<path d="M483.979 100.001C483.979 100.001 484.605 104.696 490.076 107.669" stroke="#422E2D" stroke-miterlimit="10"/>
<path d="M463.344 100.784C463.344 100.784 466.783 101.879 469.91 100.001" stroke="#422E2D" stroke-miterlimit="10"/>
<path d="M467.878 124.415C467.878 124.415 474.131 125.041 483.667 124.415C483.667 124.415 478.821 130.361 471.786 129.735C470.066 129.579 467.878 124.415 467.878 124.415Z" fill="white"/>
<path d="M483.666 115.025C484.702 115.025 485.542 113.483 485.542 111.582C485.542 109.68 484.702 108.139 483.666 108.139C482.63 108.139 481.791 109.68 481.791 111.582C481.791 113.483 482.63 115.025 483.666 115.025Z" fill="#422E2D"/>
<path d="M466.471 112.834C467.507 112.834 468.347 111.292 468.347 109.391C468.347 107.489 467.507 105.948 466.471 105.948C465.435 105.948 464.595 107.489 464.595 109.391C464.595 111.292 465.435 112.834 466.471 112.834Z" fill="#422E2D"/>
<path d="M472.568 111.582C472.568 111.582 471.161 117.372 464.282 116.903C464.282 116.903 472.88 128.014 472.568 111.582Z" fill="#9A2532"/>
<path d="M511.648 120.502C528.531 100.314 534.941 95.9323 511.648 79.6567C511.648 79.6567 509.304 64.32 489.294 69.1714C458.342 76.8397 464.126 79.6566 463.032 96.4018C463.032 96.4018 479.758 98.5927 493.202 90.6114C493.202 90.6114 493.671 100.158 499.143 104.853L498.205 115.025L511.648 120.502Z" fill="#422E2D"/>
<path d="M511.648 79.8131C511.648 79.8131 513.681 75.5877 511.648 71.2058" stroke="#422E2D" stroke-miterlimit="10"/>
<path d="M510.398 82.1606C510.398 82.1606 517.745 78.8742 518.37 75.4312" stroke="#422E2D" stroke-miterlimit="10"/>
<path d="M514.861 121.619C516.846 116.364 515.116 110.84 510.997 109.281C506.879 107.722 501.931 110.718 499.946 115.973C497.961 121.228 499.691 126.752 503.809 128.311C507.928 129.871 512.876 126.874 514.861 121.619Z" fill="#B14330"/>
<path d="M516.495 155.87L510.398 140.221L475.694 148.359L485.543 177.78L516.495 155.87Z" fill="#FFB84F"/>
<path d="M476.945 151.801L496.329 150.706L478.195 155.87L476.945 151.801Z" fill="#FFD788"/>
<path d="M541.506 155.87L545.884 242.569L518.683 256.811L516.495 155.87H541.506Z" fill="#FFB84F"/>
<path d="M507.271 141.629L498.205 138.812C497.11 138.499 496.485 137.404 496.798 136.308L503.989 113.147C504.301 112.051 505.396 111.425 506.49 111.738L515.557 114.555C516.651 114.868 517.276 115.964 516.964 117.059L509.773 140.221C509.46 141.473 508.366 142.099 507.271 141.629Z" fill="#A5BBAA"/>
<path d="M509.773 142.412L500.237 139.438C499.143 139.125 498.517 138.03 498.83 136.934L506.021 113.773C506.334 112.677 507.428 112.051 508.522 112.364L518.058 115.338C519.152 115.651 519.777 116.746 519.465 117.842L512.274 141.003C511.961 142.255 510.867 142.881 509.773 142.412Z" fill="#E8DFCF"/>
<path d="M509.147 117.685C509.924 117.685 510.554 117.055 510.554 116.277C510.554 115.499 509.924 114.868 509.147 114.868C508.37 114.868 507.74 115.499 507.74 116.277C507.74 117.055 508.37 117.685 509.147 117.685Z" fill="#A5BBAA"/>
<path d="M540.412 238.813L514.306 141.16L510.398 143.038C510.398 143.038 506.646 218.469 523.685 247.421L540.412 238.813Z" fill="#B14330"/>
<path d="M514.306 141.16L522.122 124.102C522.122 124.102 501.644 128.953 510.398 143.038L514.306 141.16Z" fill="#B14330"/>
<path d="M521.966 124.102L512.899 116.12C512.899 116.12 509.616 121.441 520.403 125.197L521.966 124.102Z" fill="#B14330"/>
<path d="M510.242 130.674L515.4 127.232L509.929 120.502C509.929 120.502 508.053 123.945 512.899 127.545L510.242 130.674Z" fill="#B14330"/>
<path d="M520.403 125.041L510.867 117.372C510.867 117.372 508.053 122.224 518.996 125.667L520.403 125.041Z" fill="#B14330"/>
<path d="M469.285 272.93L458.811 163.852L475.694 272.93H469.285Z" fill="#FFD788"/>
<path d="M272.785 453.683H185.244V466.516H272.785V453.683Z" fill="#86593E"/>
<path d="M306.239 529.74H295.296L244.022 386.546H254.808L306.239 529.74Z" fill="#B58E67"/>
<path d="M218.228 529.74H229.171L241.99 386.546H231.203L218.228 529.74Z" fill="#B58E67"/>
<path d="M154.135 529.74H165.078L216.352 386.546H205.41L154.135 529.74Z" fill="#B58E67"/>
<path d="M258.404 285.293H167.892C166.016 285.293 164.453 286.858 164.453 288.736V382.164C164.453 385.294 166.954 387.798 170.081 387.798H267.001V293.744C266.845 289.049 263.093 285.293 258.404 285.293Z" fill="#FFB84F"/>
<path d="M294.983 401.57H209.162V387.954H294.983C298.735 387.954 301.862 391.084 301.862 394.84C301.705 398.44 298.735 401.57 294.983 401.57Z" fill="#FFB84F"/>
<path d="M171.8 373.244V291.083C171.8 287.953 169.143 285.293 166.016 285.293C162.89 285.293 160.232 287.953 160.232 291.083V374.339C160.232 389.363 172.425 401.57 187.433 401.57H207.442C211.194 401.57 214.32 398.44 214.32 394.684C214.32 390.928 211.194 387.798 207.442 387.798H186.495C178.366 387.798 171.8 381.225 171.8 373.244Z" fill="#FFD788"/>
<path d="M264.5 386.546H218.541C196.968 386.546 181.649 365.575 188.214 345.074L195.874 321.287L263.406 313.149L264.5 386.546Z" fill="#B7C9B9"/>
<path d="M271.379 224.259L290.763 293.431H271.379L250.9 258.845L271.379 224.259Z" fill="#EFEBDF"/>
<path d="M289.825 290.301L339.536 300.003L338.129 304.229C338.129 304.229 294.045 314.714 271.222 293.587L289.825 290.301Z" fill="#B1432D"/>
<path d="M339.536 300.003L360.952 298.126L355.012 303.446C350.322 307.672 343.288 307.985 338.129 304.229L339.536 300.003Z" fill="#B1432D"/>
<path d="M360.952 297.969L364.86 306.733C364.86 306.733 359.233 307.985 359.389 299.534L360.952 297.969Z" fill="#B1432D"/>
<path d="M356.263 299.221L359.858 308.454C359.702 308.454 353.292 309.08 356.263 299.221Z" fill="#B1432D"/>
<path d="M360.952 297.969L368.3 303.759C368.3 303.759 363.454 306.42 360.483 299.065L360.952 297.969Z" fill="#B1432D"/>
<path d="M350.635 304.229H260.28V310.645H350.635V304.229Z" fill="white"/>
<path d="M271.379 224.259L249.962 215.652H224.638L192.279 225.355L206.817 287.014L193.529 320.348H256.215L251.369 285.606L251.525 284.98C252.62 281.537 255.277 278.72 258.56 276.999C264.188 274.182 267.47 270.426 267.939 266.357C268.096 264.635 267.939 262.444 267.627 260.253C265.751 250.394 266.22 240.222 269.346 230.676L271.379 224.259Z" fill="#EFEBDF"/>
<path d="M259.654 278.72C263.093 276.999 266.22 273.086 267.314 268.548C267.314 268.548 259.654 275.434 232.923 272.93C202.127 270.113 221.355 292.805 210.412 320.192H256.215L251.369 285.449L251.525 284.823C252.62 281.224 256.371 280.285 259.654 278.72Z" fill="#EFEBDF"/>
<path d="M245.898 232.554L224.481 215.652L235.893 192.647H255.121L245.898 232.554Z" fill="#B14330"/>
<path d="M250.431 212.992L239.958 199.846L255.121 192.647L250.431 212.992Z" fill="#5F281C"/>
<path d="M234.799 145.385C234.799 145.385 239.801 141.16 246.054 141.16C251.525 141.16 265.751 146.95 270.909 160.252C276.224 173.554 278.1 184.822 272.942 199.846L249.806 192.647L234.799 145.385Z" fill="#422E2D"/>
<path d="M270.597 178.719C271.691 190.613 267.783 205.323 255.746 206.419C243.709 207.514 225.888 193.273 224.95 181.223C223.856 169.329 222.918 149.298 239.019 147.889C262.468 146.011 269.503 166.825 270.597 178.719Z" fill="#B14330"/>
<path d="M261.061 169.173C261.061 169.173 264.344 167.451 267.001 169.799" stroke="#422E2D" stroke-miterlimit="10"/>
<path d="M223.387 179.501C223.387 179.501 251.525 179.188 257.778 154.618C257.778 154.618 261.999 155.401 267.939 161.974C267.939 161.974 265.126 147.42 241.677 147.42C217.759 147.42 223.387 179.501 223.387 179.501Z" fill="#422E2D"/>
<path d="M257.309 152.74C257.309 152.74 261.999 171.833 231.985 178.249" stroke="#422E2D" stroke-miterlimit="10"/>
<path d="M234.799 174.963C234.799 174.963 230.109 189.674 237.144 203.445C237.144 203.445 214.32 206.419 199.157 189.517C198.844 174.337 206.348 159.47 216.04 149.611C224.012 141.316 246.836 138.656 252.62 154.462C252.463 154.618 236.831 154.149 234.799 174.963Z" fill="#422E2D"/>
<path d="M275.13 200.941C275.13 200.941 285.76 171.051 262.468 151.019" stroke="#422E2D" stroke-miterlimit="10"/>
<path d="M196.812 187.483C196.812 187.483 199.157 141.316 238.707 144.603" stroke="#422E2D" stroke-miterlimit="10"/>
<path d="M263.093 189.674C263.093 189.674 257.466 190.3 249.337 189.674C249.337 189.674 253.558 194.838 259.811 194.368C261.061 194.212 263.093 189.674 263.093 189.674Z" fill="white"/>
<path d="M249.18 181.223C250.13 181.223 250.9 179.892 250.9 178.249C250.9 176.607 250.13 175.276 249.18 175.276C248.231 175.276 247.461 176.607 247.461 178.249C247.461 179.892 248.231 181.223 249.18 181.223Z" fill="#422E2D"/>
<path d="M264.188 179.345C265.137 179.345 265.907 178.014 265.907 176.371C265.907 174.729 265.137 173.398 264.188 173.398C263.238 173.398 262.468 174.729 262.468 176.371C262.468 178.014 263.238 179.345 264.188 179.345Z" fill="#422E2D"/>
<path d="M258.873 178.249C258.873 178.249 260.123 183.414 266.22 182.944C266.22 182.944 258.56 192.647 258.873 178.249Z" fill="#9A2532"/>
<path d="M231.542 193.005C235.095 191.66 236.565 186.834 234.824 182.226C233.084 177.617 228.792 174.972 225.239 176.317C221.686 177.662 220.216 182.488 221.957 187.097C223.697 191.705 227.989 194.35 231.542 193.005Z" fill="#B14330"/>
<path d="M227.608 160.096H224.168V178.249H227.608V160.096Z" fill="#709480"/>
<path d="M225.419 160.096H221.98V178.249H225.419V160.096Z" fill="#B4C6B6"/>
<path d="M229.483 164.165V155.401C229.483 151.645 231.672 147.889 234.955 146.011C236.674 145.072 241.364 142.099 241.364 142.099C241.364 142.099 233.079 142.099 229.483 143.507L228.545 143.82C224.637 145.385 222.136 148.985 222.136 153.21V164.321H229.483V164.165Z" fill="#709480"/>
<path d="M227.295 164.165V155.401C227.295 151.645 229.327 148.202 232.766 146.481L241.52 141.942L238.863 141.786C234.955 141.473 231.047 141.942 227.295 143.351L226.357 143.664C222.449 145.229 219.948 148.828 219.948 153.053V164.165H227.295Z" fill="#B4C6B6"/>
<path d="M225.107 192.021C230.373 192.021 234.642 187.747 234.642 182.475C234.642 177.202 230.373 172.928 225.107 172.928C219.84 172.928 215.571 177.202 215.571 182.475C215.571 187.747 219.84 192.021 225.107 192.021Z" fill="#B4C6B6"/>
<path d="M223.231 192.021C228.497 192.021 232.766 187.747 232.766 182.475C232.766 177.202 228.497 172.928 223.231 172.928C217.964 172.928 213.695 177.202 213.695 182.475C213.695 187.747 217.964 192.021 223.231 192.021Z" fill="#F1EADF"/>
<path d="M223.231 188.578C226.598 188.578 229.327 185.846 229.327 182.475C229.327 179.104 226.598 176.371 223.231 176.371C219.864 176.371 217.134 179.104 217.134 182.475C217.134 185.846 219.864 188.578 223.231 188.578Z" fill="#B4C6B6"/>
<path d="M223.23 185.135C224.698 185.135 225.888 183.944 225.888 182.475C225.888 181.005 224.698 179.814 223.23 179.814C221.763 179.814 220.573 181.005 220.573 182.475C220.573 183.944 221.763 185.135 223.23 185.135Z" fill="#F1EADF"/>
<path d="M257.466 201.724L234.642 199.063L222.605 182.944L223.856 182.005L235.424 197.498L257.622 200.159L257.466 201.724Z" fill="#F1EADF"/>
<path d="M257.935 202.506H252.307C251.682 202.506 251.369 202.037 251.369 201.567V199.376C251.369 198.75 251.838 198.437 252.307 198.437H257.935C258.56 198.437 258.872 198.907 258.872 199.376V201.567C258.872 202.037 258.403 202.506 257.935 202.506Z" fill="#B4C6B6"/>
<path d="M208.224 262.444L203.847 275.277L201.345 266.357L208.224 262.444Z" fill="#EFEBDF"/>
<path d="M192.122 225.355L164.453 294.37H187.276L208.224 262.444L192.122 225.355Z" fill="#EFEBDF"/>
<path d="M313.899 310.645H294.046C294.046 305.168 298.423 300.786 303.894 300.786C309.365 300.786 313.899 305.168 313.899 310.645Z" fill="#B7C9B9"/>
<path d="M190.559 289.362L286.698 300.003L285.291 304.229C285.291 304.229 210.256 329.894 164.453 294.526L190.559 289.362Z" fill="#B1432D"/>
<path d="M286.698 300.003L308.115 298.126L302.174 303.446C297.485 307.672 290.45 307.985 285.291 304.229L286.698 300.003Z" fill="#B1432D"/>
<path d="M308.115 297.969L312.023 306.733C312.023 306.733 306.395 307.985 306.551 299.534L308.115 297.969Z" fill="#B1432D"/>
<path d="M303.425 299.221L307.02 308.454C306.864 308.454 300.298 309.08 303.425 299.221Z" fill="#B1432D"/>
<path d="M308.114 297.969L315.462 303.759C315.462 303.759 310.616 306.42 307.646 299.065L308.114 297.969Z" fill="#B1432D"/>
<path d="M397.219 282.632H309.209C303.738 282.632 299.361 277.938 299.673 272.46L303.112 215.182C303.425 210.018 307.646 206.106 312.648 206.106H400.659C406.13 206.106 410.507 210.801 410.194 216.278L406.755 273.556C406.443 278.564 402.222 282.632 397.219 282.632Z" fill="#225639"/>
<path d="M402.691 282.632H314.68C309.209 282.632 304.832 277.938 305.145 272.46L308.584 215.182C308.896 210.018 313.117 206.106 318.12 206.106H406.13C411.601 206.106 415.978 210.801 415.666 216.278L412.227 273.556C411.914 278.564 407.85 282.632 402.691 282.632Z" fill="#A5BBAA"/>
<path d="M372.051 260.879H344.538L356.106 303.133C356.419 304.542 355.481 305.95 354.074 305.95H327.186V310.802H358.138H376.428C380.962 310.802 384.401 306.42 383.15 302.038L372.051 260.879ZM370.019 295.622C366.58 295.622 363.766 292.805 363.766 289.362C363.766 285.919 366.58 283.102 370.019 283.102C373.458 283.102 376.272 285.919 376.272 289.362C376.272 292.805 373.458 295.622 370.019 295.622Z" fill="#225639"/>
<path d="M367.205 244.447H351.417C347.665 244.447 344.695 247.421 344.695 251.177V260.879H374.083V251.177C373.927 247.421 370.957 244.447 367.205 244.447Z" fill="#225639"/>
<path d="M371.739 244.447H355.95C352.198 244.447 349.228 247.421 349.228 251.177V260.879H378.617V251.177C378.461 247.421 375.491 244.447 371.739 244.447Z" fill="#E3E3E3"/>
<path d="M389.56 301.568L378.461 261.036H349.072L350.791 267.139L361.109 305.168C361.89 307.828 359.858 310.489 357.201 310.802H358.139H362.672H376.428H382.525C387.371 310.802 390.81 306.263 389.56 301.568ZM372.208 295.622C368.769 295.622 365.955 292.805 365.955 289.362C365.955 285.919 368.769 283.102 372.208 283.102C375.647 283.102 378.461 285.919 378.461 289.362C378.461 292.805 375.647 295.622 372.208 295.622Z" fill="#E3E3E3"/>
<path d="M371.739 244.447H355.95C352.198 244.447 349.228 247.421 349.228 251.177V260.879H378.617V251.177C378.461 247.421 375.491 244.447 371.739 244.447Z" fill="#A5BBAA"/>
<path d="M389.56 301.568L378.461 261.036H349.072L350.791 267.139L361.109 305.168C361.89 307.828 359.858 310.489 357.201 310.802H358.139H362.672H376.428H382.525C387.371 310.802 390.81 306.263 389.56 301.568ZM372.208 295.622C368.769 295.622 365.955 292.805 365.955 289.362C365.955 285.919 368.769 283.102 372.208 283.102C375.647 283.102 378.461 285.919 378.461 289.362C378.461 292.805 375.647 295.622 372.208 295.622Z" fill="#A5BBAA"/>
<path d="M389.56 301.568L378.461 261.036H378.304V251.333C378.304 247.577 375.334 244.604 371.582 244.604H355.794" stroke="#F3F5F4" stroke-miterlimit="10" stroke-linecap="round" stroke-linejoin="round"/>
<path d="M378.617 260.879L389.716 301.412C390.966 306.107 387.527 310.645 382.681 310.645" stroke="#F3F5F4" stroke-miterlimit="10" stroke-linecap="round" stroke-linejoin="round"/>
<path d="M316.713 257.124C316.244 257.124 315.931 256.811 316.087 256.341L317.963 222.538C317.963 222.225 318.276 221.912 318.745 221.912C319.057 221.912 319.37 222.225 319.37 222.694L317.494 256.498C317.338 256.967 317.182 257.124 316.713 257.124Z" fill="#D1CEC7"/>
<path d="M321.246 257.124C320.777 257.124 320.464 256.811 320.621 256.341L322.497 222.538C322.497 222.225 322.809 221.912 323.278 221.912C323.591 221.912 323.904 222.225 323.904 222.694L322.028 256.498C321.871 256.967 321.559 257.124 321.246 257.124Z" fill="#D1CEC7"/>
<path d="M325.779 257.124C325.311 257.124 324.998 256.811 325.154 256.341L327.03 222.538C327.03 222.225 327.343 221.912 327.812 221.912C328.124 221.912 328.437 222.225 328.437 222.694L326.561 256.498C326.405 256.967 326.092 257.124 325.779 257.124Z" fill="#D1CEC7"/>
<path d="M330.313 257.124C329.844 257.124 329.531 256.811 329.687 256.341L331.563 222.538C331.563 222.225 331.876 221.912 332.345 221.912C332.658 221.912 332.97 222.225 332.97 222.694L331.094 256.498C330.938 256.967 330.625 257.124 330.313 257.124Z" fill="#D1CEC7"/>
<path d="M334.846 257.124C334.69 257.124 334.69 257.124 334.846 257.124C334.377 257.124 334.065 256.811 334.221 256.341L336.097 222.538C336.097 222.225 336.409 221.912 336.878 221.912C337.191 221.912 337.504 222.225 337.504 222.694L335.628 256.498C335.471 256.967 335.159 257.124 334.846 257.124Z" fill="#D1CEC7"/>
<path d="M387.058 257.124C386.589 257.124 386.277 256.811 386.433 256.341L388.309 222.538C388.309 222.225 388.622 221.912 389.091 221.912C389.403 221.912 389.716 222.225 389.716 222.694L387.84 256.498C387.684 256.967 387.371 257.124 387.058 257.124Z" fill="#D1CEC7"/>
<path d="M391.592 257.124C391.123 257.124 390.81 256.811 390.966 256.341L392.842 222.538C392.842 222.225 393.155 221.912 393.624 221.912C393.937 221.912 394.249 222.225 394.249 222.694L392.373 256.498C392.217 256.967 391.904 257.124 391.592 257.124Z" fill="#D1CEC7"/>
<path d="M396.125 257.124C396.125 257.124 395.969 257.124 396.125 257.124C395.656 257.124 395.344 256.811 395.5 256.341L397.376 222.538C397.376 222.225 397.688 221.912 398.157 221.912C398.47 221.912 398.783 222.225 398.783 222.694L396.907 256.498C396.75 256.967 396.438 257.124 396.125 257.124Z" fill="#D1CEC7"/>
<path d="M400.502 257.124C400.033 257.124 399.721 256.811 399.877 256.341L401.753 222.538C401.753 222.225 402.065 221.912 402.534 221.912C402.847 221.912 403.16 222.225 403.16 222.694L401.284 256.498C401.284 256.967 400.971 257.124 400.502 257.124Z" fill="#D1CEC7"/>
<path d="M405.036 257.124C404.567 257.124 404.254 256.811 404.41 256.341L406.286 222.538C406.286 222.225 406.599 221.912 407.068 221.912C407.38 221.912 407.693 222.225 407.693 222.694L405.817 256.498C405.817 256.967 405.505 257.124 405.036 257.124Z" fill="#D1CEC7"/>
<path d="M307.958 337.406H277.162L261.999 502.04H266.689C302.331 406.421 312.648 363.385 315.618 346.639C316.556 341.788 312.804 337.406 307.958 337.406Z" fill="#B7C9B9"/>
<path d="M262.624 495.78C262.624 495.78 296.703 407.829 287.949 348.361C287.323 344.605 277.319 337.406 277.319 337.406L262.624 495.78Z" fill="#A5BBAA"/>
<path d="M278.257 337.406H252.151L190.715 495.78L194.623 502.04C238.863 433.964 279.195 373.557 287.636 350.865C289.981 344.292 285.135 337.406 278.257 337.406Z" fill="#B7C9B9"/>
<path d="M241.99 364.949C226.983 368.549 211.35 363.385 208.224 353.995C204.785 343.353 213.695 337.406 213.695 337.406L207.129 319.879L195.718 321.287L188.058 345.074C181.492 365.575 196.812 386.546 218.385 386.546H233.079L190.715 495.78C254.183 394.684 241.99 364.949 241.99 364.949Z" fill="#A5BBAA"/>
<path d="M194.936 323.478H263.406L263.562 337.406H190.559L194.936 323.478Z" fill="#225639"/>
<path d="M266.845 502.04V521.602L279.038 523.011H263.093L261.999 510.961L256.371 503.605L262.624 495.78L266.845 502.04Z" fill="#B1432D"/>
<path d="M279.039 523.011L277.163 529.74H264.5C262.312 529.74 260.592 528.019 260.592 525.828V512.526L254.183 504.075L262.781 495.78L263.25 523.011H279.039Z" fill="#E8DFCF"/>
<path d="M254.027 504.075V529.74L258.56 506.892L254.027 504.075Z" fill="#E8DFCF"/>
<path d="M194.936 502.04V521.602L207.129 523.011H191.184L190.09 510.961L184.462 503.605L190.715 495.78L194.936 502.04Z" fill="#B1432D"/>
<path d="M207.129 523.011L205.254 529.74H192.591C190.403 529.74 188.683 528.019 188.683 525.828V512.526L182.274 504.075L190.872 495.78L191.341 523.011H207.129Z" fill="#E8DFCF"/>
<path d="M182.117 504.075V529.74L186.651 506.892L182.117 504.075Z" fill="#E8DFCF"/>
<path d="M179.147 529.74H139.128C132.719 529.74 127.717 524.576 127.717 518.316V323.478H190.715V518.159C190.715 524.576 185.557 529.74 179.147 529.74Z" fill="#E8DFCF"/>
<path d="M170.237 529.74H130.218C123.809 529.74 118.806 524.576 118.806 518.316V323.478H181.805V518.159C181.649 524.576 176.49 529.74 170.237 529.74Z" fill="#A5BBAA"/>
<path d="M423.169 529.74H383.15C376.741 529.74 371.739 524.576 371.739 518.316V323.478H434.581V518.159C434.581 524.576 429.422 529.74 423.169 529.74Z" fill="#E8DFCF"/>
<path d="M414.102 529.74H374.084C367.674 529.74 362.672 524.576 362.672 518.316V323.478H425.67V518.159C425.514 524.576 420.512 529.74 414.102 529.74Z" fill="#A5BBAA"/>
<path d="M100.047 330.52H419.417C423.482 330.52 426.765 327.234 426.765 323.165V317.844C426.765 313.775 423.482 310.489 419.417 310.489H100.047C95.983 310.489 92.7002 313.775 92.7002 317.844V323.165C92.7002 327.234 95.983 330.52 100.047 330.52Z" fill="#A5BBAA"/>
<path d="M244.647 330.52H467.565C471.629 330.52 474.912 327.234 474.912 323.165V317.844C474.912 313.775 471.629 310.489 467.565 310.489H244.647C240.583 310.489 237.3 313.775 237.3 317.844V323.165C237.3 327.234 240.583 330.52 244.647 330.52Z" fill="#E8DFCF"/>
<path d="M181.649 330.52H118.65V342.101H181.649V330.52Z" fill="#225639"/>
<path d="M425.67 330.52H362.672V342.101H425.67V330.52Z" fill="#225639"/>
<path d="M446.618 119.72L430.516 106.887H328.75C322.028 106.887 316.4 101.41 316.4 94.5238V77.6222C316.4 70.8928 321.871 65.259 328.75 65.259H434.268C440.99 65.259 446.618 70.7363 446.618 77.6222V119.72Z" fill="white" stroke="#225639" stroke-width="0.25" stroke-miterlimit="10"/>
<path d="M330.938 75.5877H402.222" stroke="#225639" stroke-width="0.25" stroke-miterlimit="10"/>
<path d="M330.938 85.134H402.222" stroke="#225639" stroke-width="0.25" stroke-miterlimit="10"/>
<path d="M330.938 94.5238H402.222" stroke="#225639" stroke-width="0.25" stroke-miterlimit="10"/>
<path d="M288.574 177.31L304.676 164.478H406.443C413.164 164.478 418.792 159 418.792 152.114V135.213C418.792 128.484 413.321 122.85 406.443 122.85H300.924C294.202 122.85 288.574 128.327 288.574 135.213V177.31Z" fill="white" stroke="#225639" stroke-width="0.25" stroke-miterlimit="10"/>
<path d="M404.098 133.178H332.814" stroke="#225639" stroke-width="0.25" stroke-miterlimit="10"/>
<path d="M404.098 142.725H332.814" stroke="#225639" stroke-width="0.25" stroke-miterlimit="10"/>
<path d="M404.098 152.114H332.814" stroke="#225639" stroke-width="0.25" stroke-miterlimit="10"/>
<path d="M541.975 101.723L542.444 101.566C549.01 105.479 553.231 105.322 555.263 102.036V101.879C557.139 99.0622 556.201 95.7758 552.605 93.4283C549.479 91.3939 545.884 91.0809 541.819 92.1764L540.568 85.76C545.571 84.3515 550.886 84.508 556.357 87.9509C563.392 92.4893 565.737 99.5317 561.672 105.792V105.948C557.608 112.364 551.199 112.208 544.946 109.547L541.819 113.303L537.755 110.643L541.975 101.723ZM533.534 113.773L540.256 118.155L535.722 125.041L529 120.659L533.534 113.773Z" fill="#A5BBAA"/>
<path d="M107.551 387.015C98.4842 387.015 91.137 394.371 91.137 403.448V509.709C91.137 512.056 93.0129 513.934 95.3577 513.934H119.588C121.933 513.934 123.809 512.056 123.809 509.709V403.448C124.121 394.371 116.618 387.015 107.551 387.015Z" fill="#E8DFCF"/>
<path d="M122.089 452.118H111.303C106.769 452.118 103.174 448.519 103.174 443.98C103.174 439.442 106.769 435.842 111.303 435.842H122.089C128.029 435.842 133.032 430.991 133.032 424.888V413.62C133.032 409.081 136.627 405.482 141.161 405.482C145.694 405.482 149.289 409.081 149.289 413.62V424.888C149.289 439.911 137.096 452.118 122.089 452.118Z" fill="#E8DFCF"/>
<path d="M105.05 473.401H93.7944C78.7873 473.401 66.7504 461.195 66.7504 446.328V435.529C66.7504 430.991 70.3458 427.392 74.8792 427.392C79.4126 427.392 83.0081 430.991 83.0081 435.529V446.328C83.0081 452.274 87.8541 457.282 93.9507 457.282H105.206C109.739 457.282 113.335 460.882 113.335 465.42C113.335 469.959 109.427 473.401 105.05 473.401Z" fill="#E8DFCF"/>
<path d="M99.7348 405.482H98.3279V411.116H99.7348V405.482Z" fill="#F3F5F4"/>
<path d="M116.93 397.031H115.523V402.665H116.93V397.031Z" fill="#F3F5F4"/>
<path d="M107.238 429.739H105.831V435.373H107.238V429.739Z" fill="#F3F5F4"/>
<path d="M112.084 412.681H110.677V418.315H112.084V412.681Z" fill="#F3F5F4"/>
<path d="M119.431 461.038H118.024V466.672H119.431V461.038Z" fill="#F3F5F4"/>
<path d="M137.878 410.803H136.471V416.437H137.878V410.803Z" fill="#F3F5F4"/>
<path d="M99.7348 447.736H98.3279V453.37H99.7348V447.736Z" fill="#F3F5F4"/>
<path d="M101.142 471.837H99.7346V477.47H101.142V471.837Z" fill="#F3F5F4"/>
<path d="M113.804 446.328H112.397V451.961H113.804V446.328Z" fill="#F3F5F4"/>
<path d="M72.6906 447.58H71.2837V453.213H72.6906V447.58Z" fill="#F3F5F4"/>
<path d="M79.2562 437.094H77.8492V442.728H79.2562V437.094Z" fill="#F3F5F4"/>
<path d="M82.2264 453.213H80.8195V458.847H82.2264V453.213Z" fill="#F3F5F4"/>
<path d="M120.682 424.888H119.275V430.521H120.682V424.888Z" fill="#F3F5F4"/>
<path d="M140.692 432.556H139.285V438.19H140.692V432.556Z" fill="#F3F5F4"/>
<path d="M135.533 482.791H80.3506C78.7874 482.791 77.6931 484.043 77.8494 485.608L83.6334 528.332C84.2587 532.714 88.0105 536 92.3876 536H124.434C128.967 536 132.719 532.557 133.188 528.175L137.878 485.608C138.034 484.043 136.94 482.791 135.533 482.791Z" fill="#F3F5F4"/>
<path d="M135.377 508.613L136.315 499.849H79.8817L80.976 508.613H135.377Z" fill="#225639"/>
<path d="M80.9759 276.06C88.4871 276.06 94.5761 269.964 94.5761 262.444C94.5761 254.925 88.4871 248.829 80.9759 248.829C73.4647 248.829 67.3757 254.925 67.3757 262.444C67.3757 269.964 73.4647 276.06 80.9759 276.06Z" fill="#F3F5F4" stroke="#225639" stroke-width="0.25" stroke-miterlimit="10"/>
<path d="M507.272 307.985C514.783 307.985 520.872 301.889 520.872 294.37C520.872 286.85 514.783 280.754 507.272 280.754C499.76 280.754 493.671 286.85 493.671 294.37C493.671 301.889 499.76 307.985 507.272 307.985Z" fill="#F3F5F4" stroke="#225639" stroke-width="0.25" stroke-miterlimit="10"/>
<path d="M491.639 387.954C495.438 387.954 498.517 384.872 498.517 381.069C498.517 377.266 495.438 374.183 491.639 374.183C487.84 374.183 484.761 377.266 484.761 381.069C484.761 384.872 487.84 387.954 491.639 387.954Z" fill="#F3F5F4" stroke="#225639" stroke-width="0.25" stroke-miterlimit="10"/>
<path d="M585.277 167.764L579.962 189.361L563.705 172.928L585.277 167.764Z" fill="#F3F5F4" stroke="#225639" stroke-width="0.25" stroke-miterlimit="10"/>
<path d="M220.417 106.574L201.502 118.155V94.9933L220.417 106.574Z" fill="#F3F5F4" stroke="#225639" stroke-width="0.25" stroke-miterlimit="10"/>
<path d="M586.684 374.339L567.613 385.92V362.759L586.684 374.339Z" fill="#F3F5F4" stroke="#225639" stroke-width="0.25" stroke-miterlimit="10"/>
<path d="M607.475 332.085H517.276C511.805 332.085 507.271 327.547 507.271 322.069V304.229C507.271 298.752 511.805 294.213 517.276 294.213H607.475C612.947 294.213 617.48 298.752 617.48 304.229V322.069C617.48 327.547 612.947 332.085 607.475 332.085Z" fill="white" stroke="#225639" stroke-width="0.25" stroke-miterlimit="10"/>
<path d="M597.939 303.603H526.656" stroke="#225639" stroke-width="0.25" stroke-miterlimit="10"/>
<path d="M597.939 313.149H526.656" stroke="#225639" stroke-width="0.25" stroke-miterlimit="10"/>
<path d="M597.939 322.539H526.656" stroke="#225639" stroke-width="0.25" stroke-miterlimit="10"/>
<path d="M161.952 210.644H71.7528C66.2814 210.644 61.748 206.106 61.748 200.628V182.788C61.748 177.31 66.2814 172.772 71.7528 172.772H161.952C167.423 172.772 171.956 177.31 171.956 182.788V200.628C171.956 206.106 167.423 210.644 161.952 210.644Z" fill="white" stroke="#225639" stroke-width="0.25" stroke-miterlimit="10"/>
<path d="M152.416 182.162H81.1322" stroke="#225639" stroke-width="0.25" stroke-miterlimit="10"/>
<path d="M152.416 191.708H81.1322" stroke="#225639" stroke-width="0.25" stroke-miterlimit="10"/>
<path d="M152.416 201.098H81.1322" stroke="#225639" stroke-width="0.25" stroke-miterlimit="10"/>
</g>
<defs>
<clipPath id="clip0">
<rect width="660" height="536" fill="white"/>
</clipPath>
</defs>
</svg>
