<svg width="100" height="100" viewBox="0 0 130 130" fill="none" xmlns="http://www.w3.org/2000/svg">
<g filter="url(#filter0_d)">
<circle cx="62" cy="61" r="40" fill="#F99705"/>
</g>
<path d="M82.375 60.5C82.375 71.4767 73.4767 80.375 62.5 80.375C58.3133 80.375 54.4289 79.0805 51.2253 76.8698L44.4318 78.5682L46.212 71.8924C43.9515 68.6664 42.625 64.7381 42.625 60.5C42.625 49.5233 51.5233 40.625 62.5 40.625C73.4767 40.625 82.375 49.5233 82.375 60.5Z" fill="#595959"/>
<path d="M56.7032 49.7344C56.1519 48.6271 55.3061 48.7251 54.4517 48.7251C52.9248 48.7251 50.5439 50.5541 50.5439 53.9579C50.5439 56.7476 51.7732 59.8013 55.9154 64.3694C59.913 68.7779 65.1655 71.0585 69.5261 70.9809C73.8867 70.9032 74.7839 67.1508 74.7839 65.8835C74.7839 65.3219 74.4353 65.0416 74.1952 64.9655C72.7092 64.2523 69.9686 62.9235 69.345 62.6739C68.7214 62.4242 68.3958 62.7619 68.1934 62.9456C67.6279 63.4845 66.5069 65.0727 66.1231 65.43C65.7392 65.7872 65.167 65.6064 64.9289 65.4714C64.0526 65.1197 61.6767 64.0629 59.7829 62.227C57.4407 59.9566 57.3032 59.1754 56.862 58.4801C56.5089 57.9238 56.768 57.5825 56.8973 57.4334C57.4019 56.8511 58.0987 55.9521 58.4112 55.5054C58.7237 55.0586 58.4756 54.3804 58.3267 53.9579C57.6866 52.1411 57.1442 50.6203 56.7032 49.7344Z" fill="white"/>
<defs>
<filter id="filter0_d" x="0" y="0" width="130" height="130" filterUnits="userSpaceOnUse" color-interpolation-filters="sRGB">
<feFlood flood-opacity="0" result="BackgroundImageFix"/>
<feColorMatrix in="SourceAlpha" type="matrix" values="0 0 0 0 0 0 0 0 0 0 0 0 0 0 0 0 0 0 127 0"/>
<feOffset dx="3" dy="4"/>
<feGaussianBlur stdDeviation="12.5"/>
<feColorMatrix type="matrix" values="0 0 0 0 0.9375 0 0 0 0 0.770139 0 0 0 0 0.519097 0 0 0 1 0"/>
<feBlend mode="normal" in2="BackgroundImageFix" result="effect1_dropShadow"/>
<feBlend mode="normal" in="SourceGraphic" in2="effect1_dropShadow" result="shape"/>
</filter>
</defs>
</svg>
